<svg width="188" height="188" viewBox="0 0 188 188" fill="none" xmlns="http://www.w3.org/2000/svg">
<circle cx="94" cy="94" r="94" fill="#0A0016"/>
<path fill-rule="evenodd" clip-rule="evenodd" d="M112.437 36V36L94.0791 67.839L75.5185 36.0871L73.7626 37.0739V36.8997L52.9236 48.8865L53.0251 49.0607L52.851 49.1622L71.3681 80.9432H34.479V82.6991V82.6991V106.571V106.571V106.934H71.3971L52.9961 138.729L75.6636 151.79L94.0791 119.893L112.567 151.659L135.235 138.599L116.732 106.934H153.621V104.902V104.902V80.8996V80.8996V80.8126H116.703L135.09 49.0026L112.437 36ZM111.595 80.9869L129.154 50.6426L122.914 47.0582L103.845 80.9724L111.595 80.9869ZM119.141 44.8956L114.019 41.9932L94.0794 76.4589V76.4589L88.0279 86.9074L64.3156 47.5367L58.9752 50.5987L85.3723 96.0208H38.8183V102.217H91.743L69.0174 142.604L74.1401 145.506L100.189 100.519L123.945 140.108L129.285 137.046L102.786 91.4641H149.224V85.253H96.3577L119.141 44.8956ZM38.8183 85.2822H74.1111L77.8696 91.7399H38.8183V85.2822ZM59.1348 136.901L76.6652 106.513H84.3129L65.2443 140.442L59.1348 136.901ZM96.5461 115.482L114.163 145.739L120.2 142.285L100.247 109.082L96.5461 115.482ZM73.9368 42.0081L91.4961 72.1782L87.9117 78.3893L68.0885 45.3603L73.9368 42.0081ZM114.207 102.58H149.282V95.9049H110.289L114.207 102.58Z" fill="white"/>
</svg>
